<svg version="1.1" xmlns="http://www.w3.org/2000/svg" xmlns:xlink="http://www.w3.org/1999/xlink" x="0px" y="0px" viewBox="0 0 450 450" style="enable-background:new 0 0 450 450;" xml:space="preserve">
	<style type="text/css">
		.st24{opacity:0.5;fill:#0074BF;enable-background:new    ;}
		.st25{opacity:0.7;fill:#0074BF;enable-background:new    ;}
		.st26{opacity:0.7;fill:#0082BF;enable-background:new    ;}
		.st27{opacity:0.8;fill:#0082BF;enable-background:new    ;}
		.st28{fill:#0082BF;}
		.st29{opacity:0.5;fill:#008FBF;enable-background:new    ;}
		.st30{opacity:0.8;fill:#008FBF;enable-background:new    ;}
		.st31{fill:#008FBF;}
		.st32{opacity:0.7;fill:#009DBF;enable-background:new    ;}
		.st33{fill:#009DBF;}
		.st34{opacity:0.7;fill:#00ABBF;enable-background:new    ;}
		.st35{fill:#00ABBF;}
		.st36{opacity:0.5;fill:#00B9BF;enable-background:new    ;}
		.st37{opacity:0.8;fill:#00B9BF;enable-background:new    ;}
		.st38{fill:#00B9BF;}
		.st39{opacity:0.7;fill:#00C6BF;enable-background:new    ;}
		.st40{opacity:0.8;fill:#00C6BF;enable-background:new    ;}
		.st41{fill:#00C6BF;}
		.st42{opacity:0.5;fill:#00D4BF;enable-background:new    ;}
		.st43{opacity:0.7;fill:#00D4BF;enable-background:new    ;}
		.st44{opacity:0.7;fill:#34E2C9;enable-background:new    ;}
		.st45{opacity:0.7;fill:#1EA4D3;enable-background:new    ;}
		.st46{opacity:0.7;fill:#9F75F2;enable-background:new    ;}
		.st47{opacity:0.7;fill:#FFCA55;enable-background:new    ;}
		.st48{opacity:0.7;fill:#F91919;enable-background:new    ;}
	</style>
		<rect x="276.9" y="385.6" class="st24" width="51.9" height="51.9"/>
		<rect x="225" y="385.6" class="st25" width="51.9" height="51.9"/>
		<rect x="173.1" y="385.6" class="st25" width="51.9" height="51.9"/>
		<rect x="121.3" y="385.6" class="st24" width="51.9" height="51.9"/>
		<rect x="328.8" y="333.8" class="st26" width="51.9" height="51.9"/>
		<rect x="276.9" y="333.8" class="st27" width="51.9" height="51.9"/>
		<rect x="225" y="333.8" class="st28" width="51.9" height="51.9"/>
		<rect x="173.1" y="333.8" class="st28" width="51.9" height="51.9"/>
		<rect x="121.3" y="333.8" class="st27" width="51.9" height="51.9"/>
		<rect x="69.4" y="333.8" class="st26" width="51.9" height="51.9"/>
		<rect x="380.6" y="281.9" class="st29" width="51.9" height="51.9"/>
		<rect x="328.8" y="281.9" class="st30" width="51.9" height="51.9"/>
		<rect x="276.9" y="281.9" class="st31" width="51.9" height="51.9"/>
		<rect x="225" y="281.9" class="st31" width="51.9" height="51.9"/>
		<rect x="173.1" y="281.9" class="st31" width="51.9" height="51.9"/>
		<rect x="121.3" y="281.9" class="st31" width="51.9" height="51.9"/>
		<rect x="69.4" y="281.9" class="st30" width="51.9" height="51.9"/>
		<rect x="17.5" y="281.9" class="st29" width="51.9" height="51.9"/>
		<rect x="380.6" y="230" class="st32" width="51.9" height="51.9"/>
		<rect x="328.8" y="230" class="st33" width="51.9" height="51.9"/>
		<rect x="276.9" y="230" class="st33" width="51.9" height="51.9"/>
		<rect x="225" y="230" class="st33" width="51.9" height="51.9"/>
		<rect x="173.1" y="230" class="st33" width="51.9" height="51.9"/>
		<rect x="121.3" y="230" class="st33" width="51.9" height="51.9"/>
		<rect x="69.4" y="230" class="st33" width="51.9" height="51.9"/>
		<rect x="17.5" y="230" class="st32" width="51.9" height="51.9"/>
		<rect x="380.6" y="178.1" class="st34" width="51.9" height="51.9"/>
		<rect x="328.8" y="178.1" class="st35" width="51.9" height="51.9"/>
		<rect x="276.9" y="178.1" class="st35" width="51.9" height="51.9"/>
		<rect x="225" y="178.1" class="st35" width="51.9" height="51.9"/>
		<rect x="173.1" y="178.1" class="st35" width="51.9" height="51.9"/>
		<rect x="121.3" y="178.1" class="st35" width="51.9" height="51.9"/>
		<rect x="69.4" y="178.1" class="st35" width="51.9" height="51.9"/>
		<rect x="17.5" y="178.1" class="st34" width="51.9" height="51.9"/>
		<rect x="380.6" y="126.3" class="st36" width="51.9" height="51.9"/>
		<rect x="328.8" y="126.3" class="st37" width="51.9" height="51.9"/>
		<rect x="276.9" y="126.3" class="st38" width="51.9" height="51.9"/>
		<rect x="225" y="126.3" class="st38" width="51.9" height="51.9"/>
		<rect x="173.1" y="126.3" class="st38" width="51.9" height="51.9"/>
		<rect x="121.3" y="126.3" class="st38" width="51.9" height="51.9"/>
		<rect x="69.4" y="126.3" class="st37" width="51.9" height="51.9"/>
		<rect x="17.5" y="126.3" class="st36" width="51.9" height="51.9"/>
		<rect x="328.8" y="74.4" class="st39" width="51.9" height="51.9"/>
		<rect x="276.9" y="74.4" class="st40" width="51.9" height="51.9"/>
		<rect x="225" y="74.4" class="st41" width="51.9" height="51.9"/>
		<rect x="173.1" y="74.4" class="st41" width="51.9" height="51.9"/>
		<rect x="121.3" y="74.4" class="st40" width="51.9" height="51.9"/>
		<rect x="69.4" y="74.4" class="st39" width="51.9" height="51.9"/>
		<rect x="276.9" y="22.5" class="st42" width="51.9" height="51.9"/>
		<rect x="225" y="22.5" class="st43" width="51.9" height="51.9"/>
		<rect x="173.1" y="22.5" class="st43" width="51.9" height="51.9"/>
		<rect x="121.3" y="22.5" class="st42" width="51.9" height="51.9"/>
		<path fill="#ffffff" d="M154.1,213.6l14.5-32.4c5.3-8.3,4.6-18.5-1.2-24.2c-0.8-0.8-1.6-1.4-2.5-2c-4-2.5-8.9-3-13.3-1.6    c-5,1.6-9.3,4.9-12,9.3c0,0-19.8,46.2-27.2,66.9s-4.4,58.8,24,87.3c30.1,30.1,73.7,37,101.5,16.1c1.2-0.6,2.3-1.3,3.3-2.1    l85.7-71.6c4.2-3.4,10.3-10.5,4.8-18.6c-5.4-7.9-15.6-2.5-19.8,0.1l-49.3,35.9c-0.9,0.8-2.3,0.6-3.1-0.3c0,0,0,0-0.1-0.1    c-1.3-1.5-1.5-5.6,0.5-7.2l75.6-64.2c6.5-5.9,7.4-14.4,2.2-20.3c-5.2-5.7-13.4-5.6-20,0.4l-68.1,53.2c-1.3,1.1-3.2,0.9-4.2-0.4    c0,0-0.1-0.1-0.1-0.1c-1.3-1.5-1.9-4.1-0.3-5.6l77.1-74.8c6.1-5.7,6.4-15.2,0.8-21.3c-2.7-2.9-6.5-4.5-10.5-4.5    c-4,0-7.9,1.5-10.8,4.3l-78.8,74c-1.9,1.9-5.6,0-6-2.2c-0.2-0.8,0.1-1.6,0.7-2.2l60.3-68.7c6-5.6,6.3-15,0.7-21    c-5.6-6-15-6.3-21-0.7c-0.2,0.2-0.5,0.5-0.7,0.7l-91.4,101.1c-3.3,3.3-8.1,3.4-10.4,1.5C153.2,217.3,152.9,215.1,154.1,213.6z"/>
</svg>