<?xml version="1.0" encoding="UTF-8" standalone="no"?>
<!-- Generator: Adobe Illustrator 16.0.0, SVG Export Plug-In . SVG Version: 6.00 Build 0)  -->

<svg
   xmlns:dc="http://purl.org/dc/elements/1.1/"
   xmlns:cc="http://creativecommons.org/ns#"
   xmlns:rdf="http://www.w3.org/1999/02/22-rdf-syntax-ns#"
   xmlns:svg="http://www.w3.org/2000/svg"
   xmlns="http://www.w3.org/2000/svg"
   xmlns:sodipodi="http://sodipodi.sourceforge.net/DTD/sodipodi-0.dtd"
   xmlns:inkscape="http://www.inkscape.org/namespaces/inkscape"
   version="1.1"
   id="Layer_1"
   x="0px"
   y="0px"
   width="864px"
   height="864px"
   viewBox="0 0 864 864"
   enable-background="new 0 0 864 864"
   xml:space="preserve"
   sodipodi:docname="Creeper.svg"
   inkscape:version="0.92.4 (unknown)"><metadata
   id="metadata13"><rdf:RDF><cc:Work
       rdf:about=""><dc:format>image/svg+xml</dc:format><dc:type
         rdf:resource="http://purl.org/dc/dcmitype/StillImage" /></cc:Work></rdf:RDF></metadata><defs
   id="defs11" /><sodipodi:namedview
   pagecolor="#ffffff"
   bordercolor="#666666"
   borderopacity="1"
   objecttolerance="10"
   gridtolerance="10"
   guidetolerance="10"
   inkscape:pageopacity="0"
   inkscape:pageshadow="2"
   inkscape:window-width="2416"
   inkscape:window-height="1621"
   id="namedview9"
   showgrid="false"
   inkscape:zoom="0.77257965"
   inkscape:cx="13.722139"
   inkscape:cy="191.30415"
   inkscape:window-x="423"
   inkscape:window-y="239"
   inkscape:window-maximized="0"
   inkscape:current-layer="g6" />
<g
   id="g6">
       
       <path
   d="m 169.92806,224.8757 c 12.96191,0 174.83965,2.84395 174.83965,2.84395 1.031,45.06702 -0.18501,97.37311 -0.18501,144.3008 H 169.92691 c 8.5e-4,-48.64059 8.5e-4,-96.25484 8.5e-4,-147.14475 z m 443.64407,451.61505 c 0,0 -81.1844,-0.18967 -85.99494,-0.0279 -0.0349,0.0116 -0.0698,0.0302 -0.10705,0.0279 -0.19899,-0.0105 -0.14779,-0.021 0.10705,-0.0279 3.75627,-1.25326 -0.69004,-78.95949 -0.69004,-78.95949 -30.07804,0 -157.04976,0.33745 -181.70519,-0.35492 v 77.17678 c 0,0 -60.2026,0.13615 -86.31027,0.13615 V 450.98926 h 88.10464 V 377.78518 H 523.3194 v 69.88884 h 90.25273 z m 90.54596,-304.1119 H 527.47014 V 224.80121 h 176.64795 z"
   id="path4"
   inkscape:connector-curvature="0"
   style="clip-rule:evenodd;fill:#1a1a1a;fill-rule:evenodd;stroke-width:1.16365039"
   sodipodi:nodetypes="ccccccccccccccccccccccccc" />
</g>
</svg>
